# Obj file Generated by Strata CX
#  Vertices: 32
#     Faces: 26
#       UVs: 13
#   Normals: 68
# Materials: 0

v 316.719269 1.105061 52.188698
v 99.362091 1.105061 52.126198
v 99.362091 1.825060 63.126198
v 387.500000 0.991061 63.082699
v 316.719269 1.042561 52.188698
v 316.719238 1.042561 74.188698
v 316.719238 1.042560 74.251198
v 387.500000 1.022770 63.065216
v 99.362091 1.042561 52.126198
v 99.362091 0.330560 63.063698
v 99.362091 1.042560 74.376198
v 99.362091 1.042561 74.313698
v 120.452011 1.401060 9.158830
v 112.756439 -0.000002 18.286264
v 100.298439 -0.000000 40.758831
v 89.719292 -0.000000 39.879528
v 108.516525 -0.000002 15.177716
v 100.698441 -0.000000 87.558830
v 89.898445 -0.000000 87.558830
v 117.098434 -0.000000 110.758827
v 113.898445 -0.000000 114.358818
v 130.599426 1.209599 122.758842
v 120.643463 1.401060 9.158830
v 108.516525 2.419198 15.177716
v 89.719292 2.419200 39.879528
v 100.298439 2.419200 40.758831
v 112.756439 2.419198 18.286264
v 89.898445 2.419200 87.558830
v 100.698441 2.419200 87.558830
v 113.898445 2.419200 114.358818
v 117.098434 2.419200 110.758827
v 130.599426 1.401060 122.758842

vt 1.000000 1.000000
vt 0.000000 1.000000
vt 0.000000 0.500000
vt 1.000000 0.000000
vt 0.500000 1.000000
vt 0.500000 0.000000
vt 0.000000 0.000000
vt 1.000000 0.500000
vt 1.000000 0.250000
vt 1.000000 0.375000
vt 0.000000 0.250000
vt 1.000000 0.437500
vt 0.000000 0.125000

vn -0.000220 0.700192 -0.713954
vn 0.001650 0.999454 -0.032999
vn 0.000288 0.000000 -1.000000
vn -1.000000 0.000000 0.000000
vn 0.001657 0.999995 0.002523
vn -1.000000 0.000000 0.000000
vn 0.000299 0.967949 -0.251146
vn -0.001184 0.382683 -0.923879
vn 0.001373 -0.999278 -0.037978
vn -0.000292 0.970775 -0.239991
vn -0.001339 0.923880 -0.382680
vn 0.001377 -0.999320 0.036838
vn -0.002475 0.707106 -0.707103
vn 0.001376 -0.999999 -0.000571
vn 0.000288 0.000000 -1.000000
vn 0.001373 -0.999278 -0.037978
vn -1.000000 0.000000 0.000000
vn -1.000000 0.000000 0.000000
vn 0.001376 -0.999999 -0.000571
vn -1.000000 0.000000 0.000000
vn 0.001377 -0.999320 0.036838
vn 0.000000 1.000000 0.000003
vn -1.000000 0.000000 0.000000
vn 0.000831 0.999819 0.019025
vn 0.009178 -0.999880 -0.012518
vn -0.447579 0.035421 -0.893543
vn 0.759828 -0.060132 0.647338
vn 0.009178 -0.999880 -0.012518
vn 0.821662 -0.030229 0.569174
vn 0.004589 -0.999970 -0.006259
vn 0.969204 0.000000 0.246261
vn 0.004589 -0.999970 -0.006259
vn -0.948172 0.000000 -0.317757
vn 0.009178 -0.999880 -0.012518
vn -0.638292 0.018183 -0.769579
vn 0.000000 -1.000000 0.000000
vn 0.951739 0.000000 -0.306909
vn 0.000000 -1.000000 0.000000
vn -0.933391 0.000000 0.358860
vn 0.024983 -0.999441 0.022207
vn 0.745331 0.000000 -0.666694
vn 0.024983 -0.999441 0.022207
vn -0.607762 0.000000 0.794119
vn 0.049938 -0.997765 0.044390
vn -0.449332 0.000000 0.893365
vn 0.664337 0.000000 -0.747433
vn 0.006661 0.999937 -0.009086
vn 0.759828 -0.060132 0.647338
vn -0.447579 0.035421 -0.893543
vn 0.006661 0.999937 -0.009086
vn -0.638292 0.018183 -0.769579
vn 0.003331 0.999984 -0.004543
vn -0.948172 0.000000 -0.317757
vn 0.003331 0.999984 -0.004543
vn 0.969204 0.000000 0.246261
vn 0.006661 0.999937 -0.009086
vn 0.821662 -0.030229 0.569174
vn 0.000000 1.000000 0.000000
vn -0.933391 0.000000 0.358860
vn 0.000000 1.000000 0.000000
vn 0.951739 0.000000 -0.306909
vn 0.021039 0.999604 0.018701
vn -0.607762 0.000000 0.794119
vn 0.021039 0.999604 0.018701
vn 0.745331 0.000000 -0.666694
vn 0.042061 0.998415 0.037388
vn -0.449332 0.000000 0.893365
vn 0.664337 0.000000 -0.747433

f 1/1/1 2/2/2 3/3/5 4/4/7
f 5/4/8 1/1/1 4/5/7 6/2/10 7/6/11 8/7/13
f 5/7/8 9/4/15 2/1/3 1/2/1
f 2/2/4 9/7/17 10/6/18 11/4/20 12/5/23 3/1/6
f 6/1/10 12/2/24 11/7/22 7/4/11
f 8/8/14 7/1/12 11/3/21 10/2/19
f 3/3/5 12/7/24 6/8/10 4/4/7
f 10/2/19 9/7/16 5/4/9 8/8/14
f 13/1/25 14/4/28 15/9/30 16/3/32 17/2/34
f 16/3/32 15/9/30 18/10/36 19/11/38
f 19/11/38 18/10/36 20/12/40 21/13/42
f 21/13/42 20/12/40 22/8/44
f 23/1/47 24/2/50 25/3/52 26/9/54 27/4/56
f 25/3/52 28/11/58 29/10/60 26/9/54
f 28/11/58 30/13/62 31/12/64 29/10/60
f 30/13/62 32/8/66 31/12/64
f 22/7/46 20/7/41 31/7/65 32/7/68
f 13/7/26 17/7/35 24/7/51 23/7/49
f 17/7/35 16/7/33 25/7/53 24/7/51
f 14/7/29 13/7/27 23/7/48 27/7/57
f 16/7/33 19/7/39 28/7/59 25/7/53
f 15/7/31 14/7/29 27/7/57 26/7/55
f 19/7/39 21/7/43 30/7/63 28/7/59
f 18/7/37 15/7/31 26/7/55 29/7/61
f 20/7/41 18/7/37 29/7/61 31/7/65
f 21/7/43 22/7/45 32/7/67 30/7/63

# End of File
